<svg xmlns="http://www.w3.org/2000/svg" viewBox="0 0 500 520.47"><defs><style>.cls-1{fill:#fff;}.cls-2{stroke:#000;stroke-miterlimit:10;stroke-width:0.5px;}</style></defs><title>education</title><g id="Layer_CHARACTER1"><g id="foot_right" data-name="foot right"><path d="M235.18,372.36c.35,3.14.78,6.38,1.33,9.71a189.55,189.55,0,0,0,4.81,21.55c-.58,1.06-1.39,2.57-2.35,4.4s-2.46,4.74-5.47,10.92c-2.49,5.13-3.74,7.7-4.06,8.63-1.09,3.2-3.1,10.57-1.3,11.53,2.11,1.13,8.8-7,12.22-11.91,2.3-3.3,2.94-4.89,8.17-14,2.17-3.79,4-6.89,5.22-9q-1.53-5.88-2.93-12.21c-1.33-6.1-2.43-12-3.32-17.63Z" transform="translate(0)"/></g><g id="leg_right" data-name="leg right"><path class="cls-1" d="M294.41,255.57c-15.39.83-16.6,2.17-25.59,1.38-1.75-.15-8.06-.25-20.68-.44a19.62,19.62,0,0,0-9.21,1.71,18,18,0,0,0-7,6,19.83,19.83,0,0,0-3.17,9.82c-1.81,18.48-2.16,4.9-3.2,24.85-.55,10.43-.82,15.64-.76,24.93.07,11.71.58,27.83,2.41,47.58a33.12,33.12,0,0,0,7,3.78,36,36,0,0,0,13,2.45,45,45,0,0,0,14.75-1.92,43.77,43.77,0,0,0,10.66-4.95c-.55-3.37-1.38-8.46-2.44-14.66-2.41-14.23-2.38-13.22-2.66-15.64a96.7,96.7,0,0,1,.33-26.95,83.72,83.72,0,0,1,2.66-11c7.29-3.38,13.37-5.67,17.49-7.11,9.07-3.18,12-3.43,20.24-6.77A128.55,128.55,0,0,0,323,281.44c10.57-5.79,13-8.61,14.48-11,1.82-3,4-6.51,2.88-9.51C337.47,253.23,315,254.45,294.41,255.57Z" transform="translate(0)"/><path class="cls-2" d="M226.85,369.43a8.09,8.09,0,0,1-.28-1.87c-.14-1.23-.31-3-.5-5.37-.39-4.67-.9-11.42-1.35-19.79s-.82-18.35-.58-29.44c.08-5.55.38-11.37.88-17.39s1.27-12.24,2.37-18.56a62.1,62.1,0,0,1,2.09-9.34,16.47,16.47,0,0,1,5.24-7.94,18.29,18.29,0,0,1,8.46-3.5,46.08,46.08,0,0,1,8.62-.5c11.08.33,21,.7,29.4,1,4.18.17,8,.28,11.3.56A62,62,0,0,1,301,258.5a34,34,0,0,1,5.18,1.58,7.5,7.5,0,0,1,1.71.82c-.06.16-2.44-.93-7-1.78a68.21,68.21,0,0,0-8.42-.92c-3.31-.19-7.09-.22-11.28-.31l-29.39-.66a45.78,45.78,0,0,0-8.32.53,16.86,16.86,0,0,0-7.74,3.22,14.86,14.86,0,0,0-4.69,7.21,60.63,60.63,0,0,0-2,9.1c-1.09,6.27-1.89,12.43-2.39,18.42s-.84,11.76-1,17.28c-.32,11,0,21,.23,29.36s.64,15.12.83,19.8c.1,2.34.17,4.16.19,5.39A7.92,7.92,0,0,1,226.85,369.43Z" transform="translate(0)"/><path class="cls-2" d="M269.26,303.38c-.06-.1.67-.61,2.05-1.47l1.15-.7c.43-.24.9-.48,1.41-.75,1-.52,2.17-1.15,3.5-1.72,2.62-1.22,5.83-2.48,9.42-3.76s7.58-2.55,11.74-3.9,8.1-2.7,11.62-4.05c1.75-.72,3.43-1.35,4.94-2.08.76-.35,1.5-.66,2.2-1l2-1c5.06-2.64,7.88-4.81,8.06-4.58s-.58.7-1.83,1.73l-1.05.85c-.4.29-.84.59-1.32.91-.95.64-2,1.41-3.3,2.1l-2,1.13c-.69.37-1.44.72-2.2,1.11-1.51.79-3.19,1.47-5,2.24-3.54,1.45-7.49,2.86-11.67,4.21l-11.76,3.77c-3.59,1.2-6.81,2.33-9.45,3.4C272.52,301.92,269.4,303.61,269.26,303.38Z" transform="translate(0)"/><path class="cls-2" d="M273.37,369.08a7.76,7.76,0,0,1-1.11-2.32c-.31-.76-.67-1.7-1-2.81s-.8-2.37-1.18-3.79-.85-3-1.22-4.66-.77-3.5-1.14-5.41a115.2,115.2,0,0,1-1.52-12.59,116.69,116.69,0,0,1,0-12.68c.14-1.94.26-3.79.48-5.51s.41-3.32.64-4.77.5-2.76.72-3.9.47-2.13.68-2.92a7.93,7.93,0,0,1,.82-2.43c.26,0-.42,3.61-1.07,9.41-.16,1.44-.34,3-.45,4.74s-.22,3.53-.32,5.45c-.12,3.85-.11,8.08.15,12.51s.79,8.63,1.37,12.43c.33,1.9.61,3.71,1,5.38s.68,3.24,1,4.66C272.51,365.54,273.62,369,273.37,369.08Z" transform="translate(0)"/><path class="cls-2" d="M272.54,370.74c.11.14-1.82,1.79-5.49,3.6l-1.44.69c-.51.23-1.06.42-1.62.64a36.74,36.74,0,0,1-3.63,1.21,46.2,46.2,0,0,1-8.67,1.47,45.4,45.4,0,0,1-8.78-.36c-1.33-.23-2.6-.42-3.76-.74-.58-.15-1.15-.27-1.68-.43l-1.52-.5c-3.86-1.33-6-2.73-5.9-2.88s2.39.76,6.23,1.78l1.51.38c.52.13,1.08.21,1.65.33,1.14.25,2.37.39,3.67.57a52.11,52.11,0,0,0,8.48.22,52.77,52.77,0,0,0,8.39-1.29c1.26-.34,2.47-.64,3.56-1,.55-.19,1.09-.35,1.6-.54l1.45-.57C270.26,371.8,272.4,370.51,272.54,370.74Z" transform="translate(0)"/><path class="cls-2" d="M241.32,403.6c-.43.12-2.43-5.76-4-13.23s-2.16-13.66-1.72-13.73,1.73,6,3.32,13.39S241.76,403.48,241.32,403.6Z" transform="translate(0)"/><path class="cls-2" d="M253.73,404.24a12.21,12.21,0,0,1-1.36,3c-1,1.85-2.41,4.51-4.22,7.77s-4,7.13-6.45,11.42c-1.23,2.13-2.48,4.42-4.08,6.66a20.58,20.58,0,0,1-6.18,5.95,7.85,7.85,0,0,1-2.18,1,2.32,2.32,0,0,1-1.57-.2,2.2,2.2,0,0,1-1-1.23,5.13,5.13,0,0,1-.15-2.39c.1-.7.14-1.4.27-2.08a34.18,34.18,0,0,1,2.26-7.56,116.83,116.83,0,0,1,6-11.74c1.81-3.25,3.16-5.93,4-7.83a15.75,15.75,0,0,1,1.4-2.93,10.62,10.62,0,0,1-.81,3.17,66,66,0,0,1-3.57,8.13c-1.65,3.35-3.83,7.24-5.62,11.76a33.92,33.92,0,0,0-2.07,7.26c-.12.65-.16,1.3-.24,2a3.7,3.7,0,0,0,.06,1.69.57.57,0,0,0,.27.36.67.67,0,0,0,.47,0,6.78,6.78,0,0,0,1.67-.78,19.55,19.55,0,0,0,5.72-5.48c1.54-2.12,2.8-4.37,4.07-6.49,2.52-4.24,4.81-8.05,6.75-11.24s3.54-5.75,4.67-7.51A13,13,0,0,1,253.73,404.24Z" transform="translate(0)"/><path class="cls-2" d="M253.18,405.78c-.44.08-1.94-5.5-3.34-12.46s-2.19-12.69-1.75-12.79S250,386,251.44,393,253.63,405.71,253.18,405.78Z" transform="translate(0)"/></g><g id="foot_left" data-name="foot left"><path d="M161.91,331.75c-3.15-3.13-4.81-5.42-8.95-8.3-2-1.4-5.1-3.5-6.46-2.52-.2.15-1,.85-.42,3.91,1.2,6.08,5.89,10.5,8.87,13.24,6.23,5.74,16.44,15.07,17.93,16.43,4.34,4,7.71,7.37,9.77,9.49A158.23,158.23,0,0,1,193,350.7c2-2.27,3.92-4.4,5.85-6.39,2.23-3.1,2.42-6.93.58-9.44a7.14,7.14,0,0,0-4.09-2.58l-13.94,16.84c-3.8-4-7.1-7-9.4-9C166,334.94,165.7,335.51,161.91,331.75Z" transform="translate(0)"/></g><g id="leg_left" data-name="leg left"><path class="cls-1" d="M362,299.55c-3.82,7.52-6.48,13.26-8.27,17.27-1.51,3.37-3,7-6.74,10.26a18.57,18.57,0,0,1-6,3.82c-5.25,1.9-10.17.07-18-3-10.66-4.13-16-6.2-19-7.4-15.47-6.23-19.74-7.4-23.4-8.2a84.73,84.73,0,0,0-13.23-1.8c-1.65,2.51-3.81,5.83-6.3,9.74-1.81,2.84-6.23,9.79-11.12,18-4.2,7.06-9.63,16.52-15.78,28.18a104.41,104.41,0,0,1-10.05-4.13,94.9,94.9,0,0,1-13.48-7.65c-9.86-7.14-14.47-19.34-16.44-26,2.71-4.65,6.36-10.66,10.93-17.52,5.81-8.72,10.12-14.35,17-23.3,8.44-11,11.68-14.55,16.21-18.2,6.36-5.11,10.65-6.72,11.67-7.09,6-2.17,11.44-2.18,18.88-1.42a156,156,0,0,1,29.35,6c9.12,2.76,21.12,6.75,35.06,12.45Z" transform="translate(0)"/><path class="cls-2" d="M268.75,310a20.58,20.58,0,0,1,4.27.33,93.12,93.12,0,0,1,11.38,2.49c4.74,1.34,10.29,3.26,16.34,5.62s12.62,5.11,19.61,7.68q5.25,2,10.3,3.46a27.91,27.91,0,0,0,4.92,1.15,11.51,11.51,0,0,0,4.62-.36,16.36,16.36,0,0,0,7.28-4.77,32.78,32.78,0,0,0,4.44-6.47c2.27-4.29,4-7.9,5.29-10.31a21.47,21.47,0,0,1,2.12-3.7,21.15,21.15,0,0,1-1.55,4c-1.12,2.51-2.66,6.14-4.84,10.57a32.61,32.61,0,0,1-4.46,6.83,17.37,17.37,0,0,1-7.85,5.3,12.91,12.91,0,0,1-5.23.48,29.52,29.52,0,0,1-5.19-1.16c-3.4-1-6.89-2.16-10.41-3.47-7.05-2.59-13.6-5.4-19.61-7.81s-11.45-4.45-16.11-5.91-8.5-2.35-11.17-3A24.06,24.06,0,0,1,268.75,310Z" transform="translate(0)"/><path class="cls-2" d="M324.64,276.63a6.15,6.15,0,0,1-1.61-.46c-1-.37-2.56-.92-4.53-1.61-3.92-1.41-9.58-3.5-16.67-5.72a168,168,0,0,0-25.35-6c-1.21-.19-2.44-.36-3.68-.49s-2.51-.29-3.78-.39a74.6,74.6,0,0,0-7.81-.34,39,39,0,0,0-7.95.86,28.46,28.46,0,0,0-7.63,2.91,51.15,51.15,0,0,0-12.46,10.46c-3.57,3.95-6.85,7.95-9.95,11.77-6.17,7.65-11.42,14.8-15.67,20.91s-7.51,11.17-9.77,14.68c-1.13,1.75-2,3.11-2.6,4a6.32,6.32,0,0,1-1,1.36,6.57,6.57,0,0,1,.71-1.52c.51-1,1.29-2.4,2.34-4.2,2.09-3.61,5.2-8.79,9.36-15s9.31-13.46,15.45-21.2c3.08-3.87,6.34-7.88,9.94-11.91a52.26,52.26,0,0,1,12.85-10.81,30.08,30.08,0,0,1,8.07-3.06,39.84,39.84,0,0,1,8.28-.87,71.48,71.48,0,0,1,8,.38c1.3.11,2.57.25,3.83.42s2.51.33,3.73.53a157,157,0,0,1,25.47,6.42c7.09,2.36,12.69,4.63,16.55,6.21,1.93.8,3.42,1.44,4.42,1.9A6.89,6.89,0,0,1,324.64,276.63Z" transform="translate(0)"/><path class="cls-2" d="M235.06,364.18c-.2-.11,1.47-3.62,4.43-9.15s7.21-13.09,12.18-21.27,9.71-15.45,13.26-20.62,5.89-8.28,6.07-8.16-1.81,3.46-5.11,8.78S258,326.44,253.06,334.6s-9.36,15.61-12.57,21S235.26,364.29,235.06,364.18Z" transform="translate(0)"/><path class="cls-2" d="M232.8,364.69c0,.16-3.1,0-7.84-1.45l-1.85-.62c-.64-.22-1.28-.51-2-.79a46.46,46.46,0,0,1-4.21-2,53.52,53.52,0,0,1-8.76-6.08,52.71,52.71,0,0,1-7.24-7.84c-.94-1.35-1.86-2.6-2.57-3.88-.37-.64-.75-1.23-1.06-1.83s-.58-1.19-.86-1.74c-2.11-4.49-2.68-7.53-2.52-7.57s1.22,2.8,3.55,7l.93,1.65c.33.57.73,1.13,1.11,1.73.73,1.22,1.67,2.41,2.61,3.69a53.4,53.4,0,0,0,15.55,13.52c1.4.75,2.71,1.52,4,2.08.65.29,1.26.61,1.87.85l1.77.7C229.86,363.86,232.85,364.41,232.8,364.69Z" transform="translate(0)"/><path class="cls-2" d="M181.4,349.12c-.32-.33,2.43-3.44,5.63-7.4s5.71-7.28,6.1-7-1.54,4-4.83,8.06S181.69,349.44,181.4,349.12Z" transform="translate(0)"/><path class="cls-2" d="M181.88,362.66a18.46,18.46,0,0,1-3.16-2.44c-2-1.65-4.78-4.07-8.23-7.1s-7.54-6.64-12.07-10.69a83.48,83.48,0,0,1-6.82-6.77,33.8,33.8,0,0,1-5.69-8.74,8.59,8.59,0,0,1-.63-5.63,2.14,2.14,0,0,1,.59-.9,1.79,1.79,0,0,1,1-.4,5,5,0,0,1,1.53.26,13.31,13.31,0,0,1,2.46,1c3.1,1.62,5.4,3.94,7.66,5.93L170.47,338c3.38,3.11,6.1,5.64,7.95,7.42a19.4,19.4,0,0,1,2.77,2.88A18.83,18.83,0,0,1,178,345.9c-2-1.63-4.82-4-8.29-7L157.54,328.3c-2.29-2-4.58-4.21-7.38-5.64a12.35,12.35,0,0,0-2.18-.86,4.32,4.32,0,0,0-.94-.19c-.11,0-.17.05-.23.21a4.2,4.2,0,0,0-.14,1,5.41,5.41,0,0,0,.07,1.13,10,10,0,0,0,.68,2.31,32.74,32.74,0,0,0,5.39,8.33,84.07,84.07,0,0,0,6.63,6.7l11.82,10.95c3.35,3.13,6.05,5.69,7.88,7.48A18.75,18.75,0,0,1,181.88,362.66Z" transform="translate(0)"/><path class="cls-2" d="M182.66,364c-.36-.24,2.55-5.22,7.05-10.68s8.81-9.3,9.12-9-3.42,4.61-7.86,10S183.05,364.25,182.66,364Z" transform="translate(0)"/></g><g id="arm_right" data-name="arm right"><path class="cls-1" d="M318.57,182.48a22.1,22.1,0,0,0-6.91,3.8c-3.87,3.18-5.6,6.89-7.15,10.31-1.65,3.65-1.07,3.6-4.19,13.64a80.22,80.22,0,0,1-4.13,11.4,42.92,42.92,0,0,1-4.38,7.67,34.62,34.62,0,0,1-11.94,10,20.81,20.81,0,0,0,6.77,7.74,22,22,0,0,0,16.27,3.11,37.19,37.19,0,0,1,1.15-3.6c2.48-6.6,6.08-10.52,8.39-13.46,0,0,3.84-4.9,8.3-15.08C322.86,213.22,326.14,202.07,318.57,182.48Z" transform="translate(0)"/><path class="cls-2" d="M285.22,236.25c-.19-.23,2.68-2.34,5.87-6.95a49.17,49.17,0,0,0,4.7-8.61,91.83,91.83,0,0,0,4-11.41c1.17-4.14,2.17-8.18,3.57-11.73a29.31,29.31,0,0,1,5.07-8.77,18,18,0,0,1,5.3-4.32,5.28,5.28,0,0,1,2.37-.82c.05.12-.75.5-2,1.37a20.4,20.4,0,0,0-4.74,4.5,30.67,30.67,0,0,0-4.56,8.57c-1.28,3.47-2.22,7.46-3.41,11.65a79.81,79.81,0,0,1-4.15,11.58A44.19,44.19,0,0,1,292,230a29.3,29.3,0,0,1-4.71,4.91C286.06,235.89,285.28,236.33,285.22,236.25Z" transform="translate(0)"/><path class="cls-2" d="M300.75,249.39c-.18-.18,1.49-2.09,3.92-5.35,1.22-1.62,2.58-3.62,4-5.89a86.58,86.58,0,0,0,4.18-7.65c1.31-2.79,2.4-5.53,3.3-8.06s1.55-4.85,2-6.82c1-3.94,1.43-6.44,1.68-6.41s.17,2.58-.55,6.65a58.52,58.52,0,0,1-1.75,7A63.57,63.57,0,0,1,309.94,239a60.08,60.08,0,0,1-4.37,5.8C302.87,247.89,300.89,249.53,300.75,249.39Z" transform="translate(0)"/></g><g id="torso"><path class="cls-1" d="M316.14,179.21a20.19,20.19,0,0,0-.58,17.29,26.68,26.68,0,0,0-3.44,6.29,27.78,27.78,0,0,0-1.76,9.93,34.32,34.32,0,0,0,4.1,16.3c-1.79,3.27-3.58,6.74-5.34,10.41q-2.52,5.23-4.61,10.17c.89,1.27,2.17,3.08,3.74,5.22C313,261.31,320.4,271.35,329.4,280c5.84,5.62,15.43,14.69,30.54,21a86.88,86.88,0,0,0,24.5,6.2,91.37,91.37,0,0,1-6.39-19.35,102.4,102.4,0,0,1-2-21.44c-.06-4.29.44-10.9,1.43-24,.76-10.13,1.36-16.63,1.07-26.1a58.78,58.78,0,0,0-1.12-11.11,52.21,52.21,0,0,0-6.3-16,121.82,121.82,0,0,0-11.86-4.45A124.2,124.2,0,0,0,316.14,179.21Z" transform="translate(0)"/><path class="cls-2" d="M371.09,189.21c-.11.24-3-1-7.79-2.5-2.39-.78-5.27-1.59-8.49-2.4s-6.8-1.54-10.58-2.17c-7.57-1.24-14.51-1.84-19.54-2.22s-8.15-.59-8.15-.83,3.14-.41,8.21-.33a139.28,139.28,0,0,1,19.75,1.77c3.82.64,7.44,1.45,10.69,2.32a87.62,87.62,0,0,1,8.49,2.78C368.43,187.47,371.17,189,371.09,189.21Z" transform="translate(0)"/><path class="cls-2" d="M316.06,233.55c-.21.07-1.1-1.93-2.38-5.22-.64-1.65-1.38-3.61-2.16-5.82-.37-1.13-.76-2.3-1.14-3.54a25.16,25.16,0,0,1-.71-4,26.26,26.26,0,0,1,.43-7.77,25.29,25.29,0,0,1,2-6c1.62-3.24,3.25-4.82,3.39-4.7s-1.05,2-2.34,5.17a28.64,28.64,0,0,0-1.91,13.15,27.67,27.67,0,0,0,.64,3.75q.52,1.8,1,3.45c.7,2.22,1.33,4.23,1.82,5.93C315.77,231.35,316.28,233.48,316.06,233.55Z" transform="translate(0)"/><path class="cls-2" d="M302.92,250.16c-.39-.24,2.14-5,5.31-10.81S314,228.83,314.46,229s-1.59,5.24-4.8,11.1S303.3,250.4,302.92,250.16Z" transform="translate(0)"/><path class="cls-2" d="M384.39,307.21a16.23,16.23,0,0,1-4,0,59.24,59.24,0,0,1-10.84-1.87,75.42,75.42,0,0,1-15.22-5.87,95.65,95.65,0,0,1-16.71-11A149.37,149.37,0,0,1,312.94,262c-2.77-3.71-4.9-6.78-6.32-8.94a18.66,18.66,0,0,1-2.07-3.45,19.52,19.52,0,0,1,2.58,3.08c1.58,2,3.85,5,6.72,8.61,5.74,7.18,13.93,17,24.77,25.89A100.39,100.39,0,0,0,355,298.11a80.89,80.89,0,0,0,14.85,6.1C378.64,306.82,384.43,306.88,384.39,307.21Z" transform="translate(0)"/><path class="cls-2" d="M383.46,306a20.91,20.91,0,0,1-1.91-4.19,89,89,0,0,1-3.69-12,96.82,96.82,0,0,1-2.49-18.52,182,182,0,0,1,.77-22.83c.67-8.06,1.41-15.71,1.64-22.67a110.7,110.7,0,0,0-.66-18.44c-.13-1.31-.36-2.54-.56-3.71s-.38-2.27-.62-3.29a31,31,0,0,0-1.54-5.09,42.3,42.3,0,0,0-2.13-4s.36.23.87.84A15,15,0,0,1,375,195a27.29,27.29,0,0,1,1.85,5.14c.29,1,.49,2.13.74,3.3s.53,2.42.69,3.74a103.12,103.12,0,0,1,1,18.65c-.16,7-.86,14.72-1.53,22.76a199.59,199.59,0,0,0-.89,22.64A103.87,103.87,0,0,0,379,289.51a116.32,116.32,0,0,0,3.16,12.07A30.47,30.47,0,0,1,383.46,306Z" transform="translate(0)"/></g><g id="book"><path class="cls-1" d="M241.68,193.25q7.5,16.83,15,33.65c5,4.52,10,9.32,15.16,14.41q8.29,8.22,15.56,16.19,9.46,3.25,19.3,7,13.38,5.06,25.72,10.33l5.67-5q-2.57-16.63-5.49-33.69-3.33-19.39-6.91-38.13l-4,1.6-1.2-7.7a32.8,32.8,0,0,1-7.45,3.82c-4,1.43-6.93,1.61-18.7,2.12-10.22.44-12,.48-14.83,1.58a25.53,25.53,0,0,0-9.7,6.89,56.66,56.66,0,0,0-1.36-7.56,59.62,59.62,0,0,0-5.35-13.52,79.6,79.6,0,0,0-8.16-12.72,30.36,30.36,0,0,1,3.4,17l-12-9.6q4.26,10.71,2.82,11.54-.93.54-4.2-3c.69,2.18,0,4.17-1.27,4.76A2.62,2.62,0,0,1,241.68,193.25Z" transform="translate(0)"/><path class="cls-2" d="M286.75,253.7c-.2.11-1.63-2.17-3.8-5.92s-5.1-9-8.3-14.74-6.09-11-8.12-14.84-3.22-6.24-3-6.36,1.72,2.1,4,5.78,5.33,8.85,8.54,14.63,6,11.1,7.9,15S287,253.6,286.75,253.7Z" transform="translate(0)"/><path class="cls-2" d="M291.9,257.44c-.07.45-1.34.62-2.8.19s-2.44-1.25-2.26-1.66,1.37-.3,2.72.09S292,257,291.9,257.44Z" transform="translate(0)"/><path class="cls-2" d="M329.79,273.55c-.15.41-8.78-2.3-19.08-6.54s-18.35-8.37-18.17-8.77,8.51,3.05,18.79,7.26S329.94,273.11,329.79,273.55Z" transform="translate(0)"/><path class="cls-2" d="M320.7,218.88c0,.22-3,.09-7.84-.38s-11.45-1.27-18.75-2.38-13.88-2.31-18.61-3.3-7.64-1.74-7.6-2,3,.13,7.8.83l18.66,2.82L313,217.36C317.78,218.11,320.73,218.66,320.7,218.88Z" transform="translate(0)"/><path class="cls-2" d="M334.58,271.9c-.21.07-1.35-2.72-2.92-7.33s-3.58-11-5.51-18.21-3.42-13.74-4.37-18.52-1.36-7.77-1.14-7.81,1,2.85,2.27,7.55,2.93,11.19,4.82,18.35,3.74,13.61,5,18.3S334.8,271.83,334.58,271.9Z" transform="translate(0)"/><path class="cls-2" d="M286.42,256.61c-.35.31-6.61-6.26-14.55-14.13s-14.55-14.1-14.24-14.45,7.42,5.36,15.39,13.29S286.75,256.33,286.42,256.61Z" transform="translate(0)"/><path class="cls-2" d="M241.69,193.27c.43-.17,3.9,7.63,8.2,17.22s7.79,17.39,7.38,17.6-4.56-7.29-8.87-16.93S241.28,193.43,241.69,193.27Z" transform="translate(0)"/><path class="cls-2" d="M263.47,212c-.3.33-5.07-3.53-10.66-8.62s-9.87-9.49-9.56-9.83,5.07,3.53,10.66,8.63S263.78,211.67,263.47,212Z" transform="translate(0)"/><path class="cls-2" d="M245.09,187.64c.44.05.63,1.53.11,3.23a8.25,8.25,0,0,1-.46,1.16,2.93,2.93,0,0,1-.69,1,1.55,1.55,0,0,1-.48.28.75.75,0,0,1-.42,0,.42.42,0,0,1-.32-.36c0-.1.07-.15.15-.24a.91.91,0,0,0,.18-.41c.08-.3.23-1.11.48-1.87C244.11,188.85,244.64,187.59,245.09,187.64Z" transform="translate(0)"/><path class="cls-2" d="M267,209.92c-.19.12-1.31-1.3-3-3.6a58.85,58.85,0,0,0-7.28-8.4,29.62,29.62,0,0,0-4.88-3.56,29.82,29.82,0,0,1-4.29-2.88,8,8,0,0,1-2.2-2.83c-.33-.79-.33-1.27-.24-1.3.25-.1.82,1.66,3.15,3.22a45,45,0,0,0,4.33,2.49,25.14,25.14,0,0,1,5.22,3.65,40,40,0,0,1,7.14,9C266.44,208.17,267.2,209.8,267,209.92Z" transform="translate(0)"/><path class="cls-2" d="M317.4,211.35c0,.22-2.9.67-7.66,1.06a76.5,76.5,0,0,1-18.7-.55,49.19,49.19,0,0,1-10-2.84,27.69,27.69,0,0,0-7.86-2.07,12,12,0,0,0-5.31.79c-1.19.49-1.77,1-1.85.86s.37-.71,1.57-1.42a10.85,10.85,0,0,1,5.63-1.38,25.69,25.69,0,0,1,8.32,1.81,56.25,56.25,0,0,0,9.73,2.65,98.86,98.86,0,0,0,18.37,1C314.43,211.16,317.39,211.12,317.4,211.35Z" transform="translate(0)"/><path class="cls-2" d="M320.76,220.78c-.42.15-1.48-1.69-2.35-4.12s-1.25-4.53-.82-4.68,1.47,1.69,2.35,4.12S321.18,220.63,320.76,220.78Z" transform="translate(0)"/><path class="cls-2" d="M245.51,178.59c.34-.26,2.46,2.11,3.59,5.78s.77,6.83.34,6.8-.81-2.92-1.89-6.31S245.12,178.86,245.51,178.59Z" transform="translate(0)"/><path class="cls-2" d="M268,207.57c-.23.08-1-1.87-2.59-4.81a53.23,53.23,0,0,0-7.45-10.61,52.3,52.3,0,0,0-5.18-4.93c-1.7-1.42-3.27-2.73-4.48-4-2.46-2.46-3.25-4.57-3.06-4.64s1.3,1.66,3.85,3.79c1.26,1.09,2.86,2.27,4.64,3.65a42.64,42.64,0,0,1,5.43,5,40.94,40.94,0,0,1,7.29,11.2C267.76,205.41,268.15,207.51,268,207.57Z" transform="translate(0)"/><path class="cls-2" d="M254.37,171.13c.39-.19,2.55,3.71,3.72,9s.9,9.76.47,9.76-.9-4.27-2.06-9.4S253.94,171.32,254.37,171.13Z" transform="translate(0)"/><path class="cls-2" d="M269.81,207.11c-.25,0-.55-2.22-1.39-5.74a63.65,63.65,0,0,0-4.73-13.25,61.07,61.07,0,0,0-3.87-6.7c-1.31-2-2.66-3.71-3.67-5.26-2.1-3.08-2.66-5.41-2.45-5.46s1.12,2,3.38,4.79c1.11,1.43,2.55,3.07,4,5.07a49.48,49.48,0,0,1,4.1,6.84,48.69,48.69,0,0,1,4.4,13.74C270.12,204.8,270,207.1,269.81,207.11Z" transform="translate(0)"/><path class="cls-2" d="M321.5,191.24c.11.14-2.26,2.24-6.88,4.34a39.27,39.27,0,0,1-8.48,2.68,59,59,0,0,1-10.82.85,85.84,85.84,0,0,0-10.61.49,27.62,27.62,0,0,0-8.19,2.34,18.88,18.88,0,0,0-4.75,3.21c-1,.95-1.47,1.56-1.58,1.48s.23-.78,1.11-1.91a16.07,16.07,0,0,1,4.69-3.8,26.14,26.14,0,0,1,8.49-2.81,73.11,73.11,0,0,1,10.82-.63,66.89,66.89,0,0,0,10.57-.7,43,43,0,0,0,8.3-2.27C318.78,192.75,321.36,191,321.5,191.24Z" transform="translate(0)"/><path class="cls-2" d="M321.24,197.26c-.44.08-1-1-1.08-2.36s.41-2.5.85-2.45.71,1.11.78,2.37S321.69,197.17,321.24,197.26Z" transform="translate(0)"/><path class="cls-2" d="M326.46,197.89c.08.17-2.49,1.69-7,3.24a56.38,56.38,0,0,1-18.48,2.93c-3.67,0-7.12-.31-10.23-.39a45.41,45.41,0,0,0-8.21.35c-4.63.68-7.14,2.35-7.28,2.08-.05-.08.51-.58,1.69-1.26a18.89,18.89,0,0,1,5.39-2,39.26,39.26,0,0,1,8.43-.73c3.17,0,6.63.24,10.22.27a67.54,67.54,0,0,0,18.14-2.4C323.64,198.79,326.35,197.65,326.46,197.89Z" transform="translate(0)"/><path class="cls-2" d="M325.19,205.87c-.45,0-.7-1.83-.56-4s.62-3.89,1.07-3.87.7,1.79.56,4S325.63,205.91,325.19,205.87Z" transform="translate(0)"/><path class="cls-2" d="M330.12,240.28c-.21,0-1.13-3.77-2.45-10-.66-3.12-1.42-6.85-2.25-11-.76-3.91-1.59-8.21-2.47-12.75l-1.23.32a114,114,0,0,1-26.4,3.39c-3.41,0-6.17-.11-8.07-.28a9.84,9.84,0,0,1-2.93-.45c0-.25,4.21-.08,11-.42a137.64,137.64,0,0,0,26.05-3.82l2.9-.74L326.87,219c.74,4.18,1.39,7.93,1.9,11.08C329.81,236.36,330.34,240.24,330.12,240.28Z" transform="translate(0)"/><path class="cls-2" d="M338.1,269.82c-.43.15-1.61-2-2.64-4.73s-1.53-5.13-1.11-5.3,1.6,1.95,2.64,4.73S338.53,269.68,338.1,269.82Z" transform="translate(0)"/><path class="cls-2" d="M338.19,269.37c.37.26,0,1.39-.81,2.53s-1.78,1.83-2.14,1.57,0-1.39.81-2.53S337.83,269.11,338.19,269.37Z" transform="translate(0)"/></g><g id="arm_left" data-name="arm left"><path class="cls-1" d="M372,188.61a36.17,36.17,0,0,0-7,9.68,37.47,37.47,0,0,0-3.5,20.61q1.69,14.37,3.38,28.74l-11.9-8.43-1.37,3.41a90.3,90.3,0,0,0-4.8-10.55c-1.65-3.08-5.68-10.61-7.19-10.08-.64.22-1.17,2,.54,11a75.21,75.21,0,0,1-10.3,1.7,73.62,73.62,0,0,1-14.24,0,25.85,25.85,0,0,0-1.23,4.85,26.59,26.59,0,0,0-.18,6.62,15.87,15.87,0,0,0,3.09,1.56,16.86,16.86,0,0,0,9.5.56c-10.38,1.11-12.6,2.06-12.61,2.73,0,1,5.06,1.82,7.47,2.1a40.77,40.77,0,0,0,15.91-1.34,3.32,3.32,0,0,1,4.43,1,3.17,3.17,0,0,1-.28,3.33,199.59,199.59,0,0,1,19,14.67,40.67,40.67,0,0,0,12.29,7.39c4,1.49,6.15,1.55,8,.89,3.12-1.09,4.72-3.85,5.63-5.42,1.23-2.13,2.08-4.69,2.42-11.21a93,93,0,0,0-.2-12.55c-.37-5-.73-10-1.83-16.66a141.35,141.35,0,0,0-4.8-20.54A133.49,133.49,0,0,0,372,188.61Z" transform="translate(0)"/><path class="cls-2" d="M389.06,265.93c-.26,0-.14-4.52-.49-11.76A172.36,172.36,0,0,0,376.85,199a54,54,0,0,0-3.45-7.81c-1-1.72-1.83-2.52-1.73-2.61s1,.58,2.26,2.26a41.51,41.51,0,0,1,4,7.72,144.81,144.81,0,0,1,11.82,55.54c0,1.83,0,3.48-.06,4.93s-.09,2.7-.19,3.72A11.45,11.45,0,0,1,389.06,265.93Z" transform="translate(0)"/><path class="cls-2" d="M375.66,252.83c0,.1-.41.19-1.11.08a11.85,11.85,0,0,1-2.77-.91,60.81,60.81,0,0,1-8.38-4.36c-6.31-3.88-10.63-8.1-10.34-8.42s5,3.23,11.2,7c3.08,1.91,5.95,3.53,8,4.71,1,.6,1.85,1.07,2.44,1.34S375.67,252.71,375.66,252.83Z" transform="translate(0)"/><path class="cls-2" d="M341.92,254.88c-.31-.35,2.57-3.3,5.47-7.42,1.46-2,2.67-4,3.53-5.39a5.18,5.18,0,0,0,.72-1.64c.08-.4.06-.67.17-.72s.34.16.46.7a3.85,3.85,0,0,1-.31,2.16,28.34,28.34,0,0,1-3.24,5.84C345.69,252.7,342.19,255.22,341.92,254.88Z" transform="translate(0)"/><path class="cls-2" d="M388.72,264.49a7,7,0,0,1,.1,2.55,19.33,19.33,0,0,1-1.53,6.82,12.23,12.23,0,0,1-2.91,4,9.14,9.14,0,0,1-5.29,2.39,12.42,12.42,0,0,1-6.2-1.31,59.69,59.69,0,0,1-5.72-3.17,149,149,0,0,1-18.53-13.17c-4.45-3.75-7-6.34-6.82-6.49s2.93,2.1,7.54,5.59A216.49,216.49,0,0,0,368,274.39a63.26,63.26,0,0,0,5.55,3.12,11.13,11.13,0,0,0,5.42,1.26,7.84,7.84,0,0,0,4.51-1.91,11.38,11.38,0,0,0,2.76-3.5,22.56,22.56,0,0,0,1.94-6.39A8.93,8.93,0,0,1,388.72,264.49Z" transform="translate(0)"/><path class="cls-2" d="M341.75,234.19c-.21.07-1-1.65-2.09-4.49l-.87-2.34c-.15-.42-.32-.83-.47-1.36a3,3,0,0,1,0-1.89,2.28,2.28,0,0,1,.66-.94,1.83,1.83,0,0,1,1.24-.42,3.54,3.54,0,0,1,1.89.86,11.44,11.44,0,0,1,2.37,2.74,43.82,43.82,0,0,1,5.25,10.81c.94,2.94,1.17,4.84,1,4.89-.47.15-2.45-7.18-7.57-14.8a10.25,10.25,0,0,0-2-2.39,2.26,2.26,0,0,0-1-.55.27.27,0,0,0-.21.06.62.62,0,0,0-.22.29c-.25.48.09,1.42.34,2.28l.69,2.4C341.57,232.27,342,234.12,341.75,234.19Z" transform="translate(0)"/><path class="cls-2" d="M340.22,233c.07.2-1.16.86-3.31,1.43a45.89,45.89,0,0,1-8.5,1.2,47,47,0,0,1-8.59,0,5.94,5.94,0,0,1-2.62-.77c-.57-.39-.69-.79-.62-.84s.37.12.9.27a8.55,8.55,0,0,0,2.41.19c2.14,0,5.09-.24,8.41-.48s6.26-.42,8.39-.7S340.14,232.8,340.22,233Z" transform="translate(0)"/><path class="cls-2" d="M332.74,239.76c.05.2-.93.66-2.65.89a16.74,16.74,0,0,1-12.66-3.76c-1.31-1.14-1.88-2.06-1.74-2.2.34-.35,3.4,2.46,8.15,3.82S332.66,239.28,332.74,239.76Z" transform="translate(0)"/><path class="cls-2" d="M331.67,240.9c.14.41-3.77,1.91-8.85,1.71a23.42,23.42,0,0,1-3.53-.38,13.73,13.73,0,0,1-2.84-.77,4.33,4.33,0,0,1-1.7-1.18c-.31-.4-.36-.68-.28-.75s.87.54,2.34.84a43.62,43.62,0,0,0,6.07.62C327.66,241.18,331.55,240.44,331.67,240.9Z" transform="translate(0)"/><path class="cls-2" d="M328.6,245.43c0,.23-.88.46-2.34.6a19.34,19.34,0,0,1-5.76-.28,11.43,11.43,0,0,1-5.3-2.57c-1.14-1.05-1.5-2-1.34-2.07s.85.45,2,1.15a16.45,16.45,0,0,0,4.95,1.9,53.33,53.33,0,0,0,5.43.72C327.7,245,328.6,245.21,328.6,245.43Z" transform="translate(0)"/><path class="cls-2" d="M329.36,247.82c.05.21-.84.66-2.4,1a19.71,19.71,0,0,1-6.23.33,11.88,11.88,0,0,1-6-2c-1.36-1-1.71-2.08-1.54-2.17s.85.56,2.16,1.2a15.83,15.83,0,0,0,5.56,1.36C325.48,248,329.25,247.36,329.36,247.82Z" transform="translate(0)"/><path class="cls-2" d="M342.68,253.24c-.15.19-1.44-.93-4-.9a17.37,17.37,0,0,0-4.39.75,29.08,29.08,0,0,1-5.7,1A26.9,26.9,0,0,1,318.17,253c-2.57-.84-4-1.77-3.89-1.95s1.65.31,4.19.84a35.25,35.25,0,0,0,10,.68,38.63,38.63,0,0,0,5.49-.89,15.17,15.17,0,0,1,4.79-.44,6.37,6.37,0,0,1,3.12,1.11C342.54,252.77,342.75,253.17,342.68,253.24Z" transform="translate(0)"/><path class="cls-2" d="M361.42,217.81c.44-.06,1.68,6,2.77,13.52a70.51,70.51,0,0,1,1,9.75c0,2.55-.52,4.09-.72,4s-.16-1.57-.43-4-.91-5.8-1.43-9.57C361.49,224,361,217.88,361.42,217.81Z" transform="translate(0)"/></g><g id="hair"><path d="M306.35,156c-9.63-1.21-15.05.51-19-3.92a15.32,15.32,0,0,1-3.27-7.43c-.87-5,.81-9,2.24-12.24a37.13,37.13,0,0,1,9.22-12.45c4.83-4.51,6.48-4.09,11-8.78a36.94,36.94,0,0,0,6.36-8.53c3-5.66,3.54-10.78,4.4-19.84.54-5.66.11-5.27.74-11.2,1.1-10.27,2.71-14.31,3.31-15.73a39.57,39.57,0,0,1,5-8.4c7.19-9.24,17.33-12.8,21.87-14.09a35.13,35.13,0,0,1,7.55-4.48c3.69-1.61,8.19-3.57,13.83-2.68a20.53,20.53,0,0,1,10.92,5.63,24.62,24.62,0,0,1,6.87,13c1.36,5.68.72,10.21.1,14.37-.49,3.22-1.18,6.07-8.14,24.56-2.82,7.51-3.68,9.62-4.48,13.58a77.33,77.33,0,0,0-1.4,13.31c-.15,5.08.28,5,.21,9.54a58.71,58.71,0,0,1-3.85,21.59,37.56,37.56,0,0,1-3.86,7.52,38.58,38.58,0,0,1-7,7.78c-3.33,2.8-4.72,2.94-7.11,5.64a21,21,0,0,0-3.45,5.31c-.92-.15-2.44-.41-4.3-.77C322.41,163,320.25,157.72,306.35,156Z" transform="translate(0)"/></g><g id="head"><path class="cls-1" d="M319,127.53a26.7,26.7,0,0,0-9,2.55,28.93,28.93,0,0,0-10.82,9.56,35.51,35.51,0,0,0-5.47,11.08c.56,1.83,1.42,4.52,2.56,7.75,2.47,7,3.84,10.87,5.75,14.08,1.82,3,5.7,8.16,14.23,12.27A21.67,21.67,0,0,0,329,181.2c.78,1.22,1.57,2.52,2.34,3.89,1.21,2.16,2.24,4.24,3.13,6.22a5.09,5.09,0,0,0,2.7,2.16c2.26.67,4.47-.91,7.19-2.92a34.77,34.77,0,0,0,6.63-6.4,22.22,22.22,0,0,1-3.91-6.56,22.72,22.72,0,0,1-1.28-11,8.25,8.25,0,0,1-3.81-4.26,8.68,8.68,0,0,1,1-7.53,5.57,5.57,0,0,0,3.19-1.68c2.25-2.43,1-5.93,1-6.12s-1.51-3.95-5.15-4.18a6,6,0,0,0-5.73,3.6,10.21,10.21,0,0,1-6.36-.42c-1.68-.73-3.24-2-5.72-6.36A54.84,54.84,0,0,1,319,127.53Z" transform="translate(0)"/><path class="cls-2" d="M318.64,185.6c0,.16-2.65-.1-6.34-2.09a30.83,30.83,0,0,1-11.43-11.34,46.94,46.94,0,0,1-5.48-15.12c-.74-4-.83-6.58-.62-6.61s.73,2.44,1.75,6.36a56.08,56.08,0,0,0,5.76,14.53,33.64,33.64,0,0,0,10.61,11.19C316.26,184.67,318.72,185.33,318.64,185.6Z" transform="translate(0)"/><path class="cls-2" d="M339.29,172.7c.15.15-.66,1.31-2.23,3a38.23,38.23,0,0,1-6.86,5.73,31.39,31.39,0,0,1-4.37,2.35A22.24,22.24,0,0,1,322,185c-2.26.52-3.7.46-3.72.26s1.32-.59,3.39-1.36c1-.38,2.25-.91,3.56-1.54s2.69-1.45,4.11-2.36a79.79,79.79,0,0,0,7-5.2C338,173.41,339.12,172.54,339.29,172.7Z" transform="translate(0)"/><path class="cls-2" d="M334.45,191.3c-.45.12-1.42-2.34-3.22-5s-3.69-4.45-3.41-4.83,2.8,1,4.76,3.91S334.88,191.22,334.45,191.3Z" transform="translate(0)"/><path class="cls-2" d="M304.93,150.68c-.07.46-1.8.54-3.74,1.19s-3.39,1.58-3.72,1.25c-.15-.16,0-.64.59-1.21a6.79,6.79,0,0,1,5.68-1.86C304.53,150.18,305,150.46,304.93,150.68Z" transform="translate(0)"/><path class="cls-2" d="M307.21,164.2c-.23,0-.28-.92-.25-2.29a34.52,34.52,0,0,0-.09-5.2A12,12,0,0,0,305.3,152c-.65-1.11-1.27-1.7-1.13-1.9s1,.11,2.05,1.2a9.44,9.44,0,0,1,2.27,5.23,15.87,15.87,0,0,1-.38,5.55C307.77,163.43,307.43,164.23,307.21,164.2Z" transform="translate(0)"/><path class="cls-2" d="M312.89,167.94c-.09.43-1.61.45-3.23-.34s-2.55-2-2.28-2.32,1.54.16,3,.85S313,167.49,312.89,167.94Z" transform="translate(0)"/><path class="cls-2" d="M321.67,143.52c-.08.23-.82.12-1.94.1a12.15,12.15,0,0,0-8,2.71c-.88.7-1.4,1.23-1.6,1.1s0-.88.78-1.9a8.92,8.92,0,0,1,9-3.05C321.13,142.82,321.75,143.33,321.67,143.52Z" transform="translate(0)"/><path class="cls-2" d="M305.27,160.24c-.27.35-1.65-.26-2.85-1.59s-1.7-2.75-1.32-3,1.41.68,2.52,1.89S305.55,159.88,305.27,160.24Z" transform="translate(0)"/><path class="cls-2" d="M317.06,155c-.27.35-1.67-.29-2.84-1.71s-1.53-2.9-1.13-3.1,1.34.81,2.39,2.06S317.34,154.67,317.06,155Z" transform="translate(0)"/><path class="cls-2" d="M323,168.28c.17.14-.15.85-1,1.79a12.47,12.47,0,0,1-3.88,2.87,12.24,12.24,0,0,1-4.66,1.24c-1.24,0-2-.15-2-.36,0-.47,2.86-.82,6-2.35S322.66,168,323,168.28Z" transform="translate(0)"/><path class="cls-2" d="M343,154.74c0-.13.35-.21.89-.48a4.93,4.93,0,0,0,1.87-1.6,5.34,5.34,0,0,0,.93-3.4,7.51,7.51,0,0,0-1.44-4.14,5,5,0,0,0-3.69-1.9,5.92,5.92,0,0,0-3.45.91c-1.82,1.14-2.36,2.55-2.6,2.44s-.09-.42.16-1.07a5.82,5.82,0,0,1,1.77-2.31,6.5,6.5,0,0,1,6.8-.89,6.07,6.07,0,0,1,2.29,1.82,8.38,8.38,0,0,1,1.67,5.13,6.17,6.17,0,0,1-1.55,4.15,4.54,4.54,0,0,1-2.57,1.46C343.41,155,343,154.83,343,154.74Z" transform="translate(0)"/><path class="cls-2" d="M348.52,167.49c0,.1-.14.31-.61.49a3.44,3.44,0,0,1-2.07,0,6,6,0,0,1-2.64-1.52,8.39,8.39,0,0,1-2-3.1,9,9,0,0,1,.07-6.48c.65-1.57,1.52-2.22,1.67-2.1s-.28,1-.57,2.45a10.21,10.21,0,0,0,.35,5.57,8.72,8.72,0,0,0,1.54,2.62,6.15,6.15,0,0,0,1.94,1.48C347.49,167.54,348.44,167.26,348.52,167.49Z" transform="translate(0)"/><path class="cls-2" d="M351.23,182.88c-.15.16-1.06-.38-2.26-1.57a16,16,0,0,1-3.66-5.53,12.35,12.35,0,0,1-.7-6.66c.34-1.71,1-2.6,1.17-2.52s0,1.08,0,2.65a15.79,15.79,0,0,0,1.08,5.94,25.19,25.19,0,0,0,3,5.38C350.78,181.89,351.39,182.71,351.23,182.88Z" transform="translate(0)"/><path class="cls-2" d="M308.3,111.54c.12.26-3,1.58-7.33,4.74a48.21,48.21,0,0,0-7,6.25,42.27,42.27,0,0,0-6.53,9.35,23.67,23.67,0,0,0-2.79,10.82,14.64,14.64,0,0,0,2.76,8.52,12.44,12.44,0,0,0,4.64,4,18.75,18.75,0,0,1,2.13,1,4.27,4.27,0,0,1-2.38-.37,11.81,11.81,0,0,1-5.3-3.9,15,15,0,0,1-2.31-4,16,16,0,0,1-1-5.2A24.14,24.14,0,0,1,286,131.15a41.82,41.82,0,0,1,14.32-15.81,35.17,35.17,0,0,1,5.71-3.08A6.32,6.32,0,0,1,308.3,111.54Z" transform="translate(0)"/><path class="cls-2" d="M348.51,32.49A22.26,22.26,0,0,1,345,34.38a76.49,76.49,0,0,0-9.38,5.53,39.59,39.59,0,0,0-11.11,11.37c-3.19,5.09-4.79,11.66-5.47,18.62s-.73,13.76-1.67,19.89a50.06,50.06,0,0,1-2,8.59,32.87,32.87,0,0,1-3.29,7,24,24,0,0,1-7.78,7.89,16.18,16.18,0,0,1-2.73,1.31c-.65.22-1,.3-1,.25s1.3-.64,3.4-2.09a25,25,0,0,0,7.14-8,39.41,39.41,0,0,0,4.79-15.17c.84-6,.82-12.75,1.54-19.85a58.91,58.91,0,0,1,1.88-10.28,34.16,34.16,0,0,1,3.94-9A39.08,39.08,0,0,1,334.92,39a59.91,59.91,0,0,1,9.77-5.15A17,17,0,0,1,348.51,32.49Z" transform="translate(0)"/><path class="cls-2" d="M348.42,167.88s0-.17.08-.48a6.94,6.94,0,0,1,.48-1.33,14.34,14.34,0,0,1,3.33-4.29c1.72-1.63,4.12-3.23,6.61-5.35A34.26,34.26,0,0,0,366,148c4.31-7,6.84-16.86,6.85-27.77.05-5.44-.66-11.28.12-17.38a76.9,76.9,0,0,1,5-18c2.3-6,4.78-11.65,6.57-17.33a50.59,50.59,0,0,0,2.7-16.74,28,28,0,0,0-4.11-14.51,21.5,21.5,0,0,0-9.94-8.45,17.46,17.46,0,0,0-5.61-1.21,21.35,21.35,0,0,0-5.15.49,37.86,37.86,0,0,0-7.93,2.74c-4.17,2-6.2,3.65-6.29,3.52a6.75,6.75,0,0,1,1.43-1.23,34.93,34.93,0,0,1,4.58-2.86,36.24,36.24,0,0,1,8-3.06,21.75,21.75,0,0,1,5.38-.63,18.39,18.39,0,0,1,6,1.17,22.69,22.69,0,0,1,10.66,8.78,29.3,29.3,0,0,1,4.48,15.2,51.67,51.67,0,0,1-2.69,17.27c-1.8,5.79-4.29,11.52-6.57,17.43A76.06,76.06,0,0,0,374.57,103c-.78,5.85-.12,11.63-.2,17.19-.1,11.14-2.81,21.2-7.38,28.36a34.57,34.57,0,0,1-7.48,8.57c-2.62,2.1-5,3.6-6.78,5.12a15.35,15.35,0,0,0-3.46,4C348.68,167.28,348.49,167.9,348.42,167.88Z" transform="translate(0)"/><path class="cls-2" d="M320.33,127.47c0,.27-2.11.33-5.3,1.32a28.78,28.78,0,0,0-11,6.55,39.81,39.81,0,0,0-7.66,10.48c-1.55,3-2.32,5-2.55,4.89s.19-2.17,1.51-5.37a33,33,0,0,1,7.58-11.18,25.65,25.65,0,0,1,11.87-6.48C318.17,126.93,320.35,127.29,320.33,127.47Z" transform="translate(0)"/><path class="cls-2" d="M336.36,146.24c.05.1-.23.39-.9.67a5.93,5.93,0,0,1-3,.29,8.85,8.85,0,0,1-4.12-1.83,20,20,0,0,1-3.71-3.89,28.72,28.72,0,0,1-4.46-8.5c-.74-2.35-.86-3.87-.65-3.92.47-.14,2,5.7,6.41,11.44a23.53,23.53,0,0,0,3.35,3.7,8.68,8.68,0,0,0,3.41,1.87C334.85,146.67,336.27,146,336.36,146.24Z" transform="translate(0)"/><path class="cls-2" d="M351,184.16c.16.14-.48,1.26-1.8,2.89a21.65,21.65,0,0,1-6.28,5.37,12.93,12.93,0,0,1-8.23,1.65,2.71,2.71,0,0,1-1.46-.84,1.83,1.83,0,0,1-.44-1.21c0-.75.49-1,.54-.88s-.07.37.09.81a1.51,1.51,0,0,0,1.47,1,14.65,14.65,0,0,0,7.25-2,30.88,30.88,0,0,0,6.22-4.72C349.82,184.88,350.78,184,351,184.16Z" transform="translate(0)"/></g></g><g id="Layer_BOOKS"><path class="cls-1" d="M374.11,54.34q18,46.35,35.93,92.7l2.88,2.75q16.05-5,32.77-10.67,14.64-5,28.51-10.17l-3.85-12.28q-1-6.56-2-13.13Q449.63,54.31,430.91,5.08L421,9.76,415.5.23c-4.3,4.23-8.68,8.84-13.05,13.87A242.54,242.54,0,0,0,374.11,54.34Z" transform="translate(0)"/><path class="cls-1" d="M114.92,24c0,.12-2.28,8.27-2.32,8.4-6.19,22.4-7.54,27.27-8.4,30.36C99,81.82,96.34,91.32,95.72,94a309.74,309.74,0,0,0-6.65,39.41l9.37,1.18v4.12l8.36,1,.77,2,5.55,1.37-.11,4c2-.51,4.71-1.25,8-2.19,10.35-3,18.11-5.77,24.3-8,4.32-1.56,9.87-3.64,16.3-6.22a549.61,549.61,0,0,0,9.71-57.79c1-8.55,1.7-16.87,2.25-24.95Q163,40.48,151.8,33q-10.43-7-20.62-13.45-.78,3.24-1.55,6.48l-5.13-4.37-.69,1.73-6-.11-.22,2.42Z" transform="translate(0)"/><path class="cls-1" d="M45.7,245.81Q23,287.28.24,328.76l9,10.09Q24,330.45,39,322q18-10.11,35.89-20L104.41,233l-8.25-13.67.63-6.56Z" transform="translate(0)"/><path class="cls-1" d="M122.93,407.22A47.52,47.52,0,0,0,109,404c-7.56-.55-9,1.22-16.07.42s-12.66-3.4-16.72-5.31a68.7,68.7,0,0,1-9.6-5.49l8.55,15.07L63.63,406.1l5.89,7.37-8.41,2.37a120.42,120.42,0,0,1,6.63,11.05,127.16,127.16,0,0,1,5.5,11.86A375.22,375.22,0,0,1,86,476.57a122.74,122.74,0,0,0,5,14.82,109.83,109.83,0,0,0,5,10.49l5.31-2.11L108.23,511c10.53-2.2,19-3.87,24.75-5,12-2.33,14.15-2.6,19-4.05,8-2.39,13.93-5.13,21.4-8.6,2.5-1.16,8.77-4.11,16.81-8.54,11.84-6.53,20.67-12.48,28.88-18,4.13-2.8,7.51-5.18,9.82-6.82l-4.4-3.78q2.12-4.23,4.22-8.48c-1.5-2.29-3.93-6.11-6.78-10.91-11.52-19.43-15.13-30.29-25.34-49.55-2.77-5.24-7.14-13.19-13.07-22.74l-5.07,6.06-8.25-16.61-6.33,10.83-7.83-18.35a51.45,51.45,0,0,1-3.23,16.34c-2.4,6.4-5.53,10.75-10.8,18.09-4.73,6.57-6.27,7.68-11.56,15.08C127.13,400.57,124.59,404.53,122.93,407.22Z" transform="translate(0)"/><path class="cls-1" d="M368.4,411.44c2.08,3.46,4.77,7.87,7.93,13,3.59,5.78,9.31,14.89,16.46,25.73,6.71,10.17,15.12,22.54,25.17,36.53,4.62,1.92,8.94,3.92,8.71,4.63-.12.4-1.73.79-1.73.79h0l14.84-6.91c7.14-3.33,19.37-9.53,41.6-22.17.13-1.49.27-3,.4-4.47l-5.27-4.37q-2.25-3.89-4.52-7.77l-4.72-2.48,4.19-5.58q-5.76-8-11.58-16-23.56-32.46-47.23-63.88L409,363.75l-10-12.63a303.57,303.57,0,0,0-30.63,60.32Z" transform="translate(0)"/><path class="cls-2" d="M410,147.33a17.17,17.17,0,0,1-1.62-3.54c-.94-2.32-2.27-5.69-3.89-9.86-3.23-8.34-7.69-19.87-12.71-32.56s-9.66-24.15-13-32.44c-1.67-4.15-3-7.52-3.91-9.85a18.35,18.35,0,0,1-1.25-3.7,17.84,17.84,0,0,1,1.83,3.45c1.08,2.26,2.58,5.55,4.39,9.65,3.62,8.19,8.43,19.59,13.46,32.29s9.31,24.31,12.28,32.76c1.48,4.22,2.64,7.65,3.4,10A17.57,17.57,0,0,1,410,147.33Z" transform="translate(0)"/><path class="cls-2" d="M415.48.26c.17.17-2.45,3-6.57,7.55s-9.66,11-15.38,18.5S383.05,40.82,379.7,46s-5.36,8.43-5.57,8.31,1.47-3.57,4.59-8.92A201.2,201.2,0,0,1,408.07,7C412.42,2.61,415.33.11,415.48.26Z" transform="translate(0)"/><path class="cls-2" d="M462.26,106.69a21.3,21.3,0,0,1-2.2-3.72c-1.32-2.45-3.15-6-5.35-10.47-4.41-8.91-10.2-21.35-16.06-35.33S428,30.33,424.71,21c-1.63-4.69-2.89-8.51-3.71-11.16a22.88,22.88,0,0,1-1.12-4.18,21.47,21.47,0,0,1,1.72,4l4.2,11c3.53,9.27,8.51,22,14.35,36S451.61,83,455.75,92c2.06,4.51,3.73,8.16,4.88,10.69A22.59,22.59,0,0,1,462.26,106.69Z" transform="translate(0)"/><path class="cls-2" d="M459.83,107.09c.13.2-2.77,2.3-7.43,5.72s-11,8.17-17.91,13.68S421.59,137.2,417.25,141s-7,6.18-7.18,6,2.25-2.82,6.4-6.86,10.11-9.4,17-14.94S446.9,115,451.74,111.86,459.71,106.91,459.83,107.09Z" transform="translate(0)"/><path class="cls-2" d="M412.92,149.78c-.4.21-1.26-.66-2.22-1.72s-1.73-2-1.48-2.39,1.58.07,2.69,1.3S413.32,149.59,412.92,149.78Z" transform="translate(0)"/><path class="cls-2" d="M475.37,128.48c.07.21-3.31,1.71-8.88,3.89s-13.32,5.06-21.95,8-16.52,5.43-22.26,7.1-9.34,2.57-9.4,2.36,3.4-1.5,9.05-3.45L444,138.84l22.09-7.55C471.76,129.38,475.29,128.27,475.37,128.48Z" transform="translate(0)"/><path class="cls-2" d="M430.9,5.08c.25.36-1.63,2.09-4.45,3.41s-5.34,1.69-5.46,1.27,2.09-1.47,4.77-2.75S430.65,4.7,430.9,5.08Z" transform="translate(0)"/><path class="cls-2" d="M469,105.17a21.93,21.93,0,0,1-1.9-3.76c-1.12-2.46-2.68-6-4.57-10.49-3.76-8.9-8.76-21.27-14-35.07S439,29.46,435.91,20.3c-1.53-4.59-2.72-8.31-3.5-10.9a21.79,21.79,0,0,1-1.06-4.07A20.87,20.87,0,0,1,433,9.2c1,2.52,2.32,6.18,4,10.72,3.32,9.06,7.92,21.58,13.11,35.36s10,26.21,13.52,35.21c1.75,4.5,3.15,8.15,4.09,10.68A20.22,20.22,0,0,1,469,105.17Z" transform="translate(0)"/><path class="cls-2" d="M467.1,111.07c.12.19-2.76,2.24-7.5,5.45s-11.33,7.56-18.62,12.36-13.89,9.14-18.71,12.23-7.84,4.93-8,4.75,2.67-2.37,7.32-5.71,11.17-7.82,18.46-12.63,14-9,18.9-12S467,110.88,467.1,111.07Z" transform="translate(0)"/><path class="cls-2" d="M470.32,116.69c.11.19-2.76,2.07-7.51,4.91s-11.38,6.65-18.8,10.68-14.21,7.55-19.18,10-8.1,3.84-8.2,3.64,2.84-1.95,7.67-4.66,11.52-6.37,18.93-10.4,14.13-7.67,19-10.25S470.2,116.49,470.32,116.69Z" transform="translate(0)"/><path class="cls-2" d="M471.65,123c.1.2-2.65,1.67-7.18,3.85s-10.86,5.06-17.9,8.09-13.49,5.64-18.19,7.43-7.65,2.78-7.74,2.57,2.72-1.57,7.3-3.63,10.94-4.84,18-7.86,13.43-5.74,18.08-7.65S471.56,122.82,471.65,123Z" transform="translate(0)"/><path class="cls-2" d="M113,147a28.91,28.91,0,0,1,.41-4.94c.37-3.17,1-7.75,1.69-13.4,1.53-11.29,3.63-26.9,6-44.13s4.5-32.83,6-44.12c.79-5.65,1.46-10.21,2-13.36a29.92,29.92,0,0,1,.92-4.88,29.42,29.42,0,0,1-.29,4.95c-.3,3.18-.79,7.77-1.44,13.43-1.29,11.33-3.23,27-5.57,44.2s-4.65,32.82-6.43,44.08c-.89,5.63-1.65,10.18-2.21,13.32A28.38,28.38,0,0,1,113,147Z" transform="translate(0)"/><path class="cls-2" d="M173.56,47.91c-.13.19-2.57-1.29-6.45-3.8s-9.17-6-15-10S141,26.69,137.17,24.07s-6.09-4.32-6-4.51,2.64,1.16,6.6,3.54,9.35,5.79,15.2,9.71,11.06,7.6,14.77,10.35S173.69,47.73,173.56,47.91Z" transform="translate(0)"/><path class="cls-2" d="M158.92,131.73c.09.2-2.26,1.37-6.15,3s-9.35,3.75-15.46,5.82-11.71,3.72-15.8,4.78-6.66,1.57-6.72,1.36,2.4-1.12,6.39-2.46L136.79,139l15.57-5.36C156.34,132.3,158.84,131.51,158.92,131.73Z" transform="translate(0)"/><path class="cls-2" d="M161.63,130.63a12.35,12.35,0,0,1,.29-3.2c.29-2,.74-5,1.32-8.63,1.15-7.28,2.74-17.33,4.33-28.45s2.88-21.21,3.82-28.52c.47-3.66.86-6.61,1.15-8.66a12.15,12.15,0,0,1,.62-3.15,12.36,12.36,0,0,1,0,3.22c-.1,2.06-.31,5-.64,8.71-.64,7.35-1.75,17.48-3.35,28.63s-3.36,21.19-4.81,28.42c-.72,3.62-1.34,6.54-1.83,8.55A12.28,12.28,0,0,1,161.63,130.63Z" transform="translate(0)"/><path class="cls-2" d="M106.81,139.66a26.35,26.35,0,0,1,0-4.7c.07-3,.29-7.4.65-12.8s.91-11.82,1.65-18.93,1.74-14.92,3-23.09S114.61,64.23,116,57.2s2.73-13.32,4-18.58,2.31-9.51,3.13-12.42a26.31,26.31,0,0,1,1.41-4.49,25.59,25.59,0,0,1-.8,4.63c-.62,3-1.51,7.24-2.62,12.53s-2.33,11.59-3.62,18.61-2.58,14.76-3.81,22.9-2.22,15.93-3.07,23-1.49,13.48-2,18.85S107.68,132,107.4,135A25.91,25.91,0,0,1,106.81,139.66Z" transform="translate(0)"/><path class="cls-2" d="M113.55,143.25c-.16.43-1.65.27-3.4-.16s-3.14-1-3.08-1.43,1.63-.6,3.47-.15S113.7,142.83,113.55,143.25Z" transform="translate(0)"/><path class="cls-2" d="M129.22,25.94c-.23.38-1.72-.12-3.13-1.36s-2.1-2.66-1.75-2.94,1.53.57,2.83,1.71S129.47,25.56,129.22,25.94Z" transform="translate(0)"/><path class="cls-2" d="M123.75,23.54a5.27,5.27,0,0,1-1.33-.13l-1.58-.17-1-.07-.56,0h-.45c-.39-.13-.31.35-.39.62l-.28,1.41-.65,3.2c-.47,2.29-1,4.9-1.61,7.78-2.42,11.54-5.87,27.45-9.78,45-2.76,12.48-5.65,24.07-6.39,34.05-.44,5-.61,9.54-.71,13.5s-.14,7.13-.19,9.71l2.53.52,2.08.45a6.18,6.18,0,0,1,1.7.49,6.58,6.58,0,0,1-1.77-.12l-2.11-.27L98.09,139c0-1.42-.07-3-.11-4.82s0-3.52-.06-5.51c0-4,.06-8.56.42-13.6a127.72,127.72,0,0,1,2.28-16.28q.84-4.31,1.86-8.81c.66-3,1.34-6.07,2-9.19,3.91-17.56,7.54-33.43,10.25-44.91l1.85-7.73.77-3.17.35-1.4c.19-.52.09-1.38.82-1.09l.75.06.57.06q.56.06,1,.15.94.16,1.59.33A3.44,3.44,0,0,1,123.75,23.54Z" transform="translate(0)"/><path class="cls-2" d="M117.19,25.26s-.23,0-.63-.21l-1.49-.67-.29,1.28-.46,1.91-1.21,4.77-3.38,12.93c-2.64,9.95-6,22.32-9.7,35.72L96.82,92.93c-1,3.86-1.89,7.61-2.68,11.19-1.56,7.16-2.73,13.67-3.59,19.15-.44,2.74-.8,5.22-1.1,7.4-.13,1.09-.44,2.18,0,2.64a4.89,4.89,0,0,0,2.2.76c3,.54,4.76.36,4.76.51a3.25,3.25,0,0,1-1.24.22,18,18,0,0,1-3.62-.11c-.39-.05-.8-.11-1.24-.2a2.79,2.79,0,0,1-1.41-.63,2.12,2.12,0,0,1-.55-1.67c0-.56.09-1.06.14-1.62.22-2.2.5-4.71.86-7.47.73-5.52,1.78-12.08,3.28-19.3.75-3.6,1.59-7.38,2.59-11.26l3.19-12c3.68-13.41,7.17-25.74,10-35.63,1.44-4.94,2.71-9.28,3.74-12.83.53-1.78,1-3.36,1.42-4.72l1.15-3.69c.93.55,1.56.93,1.89,1.15S117.21,25.23,117.19,25.26Z" transform="translate(0)"/><path class="cls-2" d="M10.58,340.41c-.35.29-2.79-2.05-5.45-5.23s-4.54-6-4.19-6.28,2.78,2.05,5.44,5.23S10.92,340.12,10.58,340.41Z" transform="translate(0)"/><path class="cls-2" d="M65.17,291.08c.11.19-3.29,2.52-8.91,6.09S42.79,305.52,34,310.63s-16.82,9.58-22.69,12.71-9.58,5-9.69,4.75,3.39-2.36,9.12-5.75l22.44-13.12,22.48-13C61.44,292.87,65.05,290.89,65.17,291.08Z" transform="translate(0)"/><path class="cls-2" d="M45.67,245.86a16.51,16.51,0,0,1-1.5,3.41c-1.07,2.14-2.65,5.22-4.64,9-4,7.57-9.58,18-15.85,29.41s-12,21.75-16.26,29.18c-2.12,3.71-3.86,6.7-5.09,8.75a16.8,16.8,0,0,1-2.07,3.11,16.29,16.29,0,0,1,1.51-3.41c1.06-2.14,2.64-5.21,4.63-9,4-7.57,9.58-18,15.85-29.41s12-21.76,16.27-29.19c2.12-3.71,3.86-6.7,5.09-8.75A16.32,16.32,0,0,1,45.67,245.86Z" transform="translate(0)"/><path class="cls-2" d="M97.68,212.83C97.8,213,95,215,90.49,218s-10.9,7.17-18,11.63S59,238.09,54.29,240.89s-7.68,4.43-7.8,4.24,2.64-2.17,7.2-5.22,10.9-7.16,18-11.62,13.51-8.42,18.22-11.22S97.56,212.64,97.68,212.83Z" transform="translate(0)"/><path class="cls-2" d="M67.71,288.8a11.68,11.68,0,0,1,.64-3c.51-1.89,1.33-4.61,2.4-7.94,2.15-6.67,5.4-15.8,9.48-25.69s8.2-18.66,11.37-24.91c1.59-3.12,2.92-5.62,3.9-7.33a11.32,11.32,0,0,1,1.65-2.57c.21.11-1.61,4-4.51,10.4s-6.84,15.17-10.91,25-7.47,18.89-9.89,25.45S67.94,288.87,67.71,288.8Z" transform="translate(0)"/><path class="cls-2" d="M73,302.24c.22.39-13.35,8.72-30.32,18.6S11.77,338.42,11.54,338s13.35-8.71,30.32-18.6S72.77,301.85,73,302.24Z" transform="translate(0)"/><path class="cls-2" d="M35.4,313.82c.22.39-5.36,3.94-12.46,7.92s-13,6.88-13.25,6.49,5.36-3.94,12.46-7.92S35.18,313.43,35.4,313.82Z" transform="translate(0)"/><path class="cls-2" d="M54.92,307.56c.11.2-2.05,1.66-5.66,3.85s-8.64,5.08-14.29,8.15-10.83,5.7-14.62,7.53-6.21,2.83-6.31,2.63,2.12-1.57,5.77-3.65,8.75-4.89,14.39-7.95S45,312.33,48.7,310.4,54.8,307.37,54.92,307.56Z" transform="translate(0)"/><path class="cls-2" d="M64.2,294.85c.29.32-3.14,3.87-8.11,7.34s-9.47,5.49-9.67,5.11,3.86-3,8.74-6.44S63.89,294.5,64.2,294.85Z" transform="translate(0)"/><path class="cls-2" d="M71.54,298.51c-.38.24-1.73-1.22-3-3.27s-2-3.9-1.65-4.14,1.74,1.22,3,3.27S71.92,298.27,71.54,298.51Z" transform="translate(0)"/><path class="cls-2" d="M103.06,231.24c-.31.3-3-2.15-5.12-6s-2.77-7.45-2.35-7.55,1.74,3.08,3.78,6.76S103.42,230.94,103.06,231.24Z" transform="translate(0)"/><path class="cls-2" d="M107.2,225.57a12.86,12.86,0,0,1-.85,3.16c-.64,2-1.63,4.88-2.92,8.42-2.56,7.06-6.31,16.75-10.77,27.32s-8.8,20-12.08,26.78c-1.64,3.38-3,6.1-4,8A12.78,12.78,0,0,1,74.91,302a13.05,13.05,0,0,1,1.1-3.08c.82-1.94,2-4.73,3.52-8.17,3-6.88,7.17-16.38,11.63-26.93s8.36-20.16,11.2-27.11c1.42-3.48,2.58-6.28,3.4-8.22A12.6,12.6,0,0,1,107.2,225.57Z" transform="translate(0)"/><path class="cls-2" d="M83.05,256c-.41-.22,2.07-5.73,5.11-12.52s5.52-12.3,6-12.14-1.39,6-4.46,12.81S83.44,256.21,83.05,256Z" transform="translate(0)"/><path class="cls-2" d="M81.17,272.55c-.41-.13,2-8.5,6.4-18.24s9.18-17,9.54-16.81-3.68,7.83-8.06,17.48S81.62,272.7,81.17,272.55Z" transform="translate(0)"/><path class="cls-2" d="M69.59,291.68c-.41-.18,1.76-6.44,4.86-14s6-13.52,6.37-13.36-1.75,6.42-4.86,14S70,291.86,69.59,291.68Z" transform="translate(0)"/><path class="cls-2" d="M165.85,489.5a16.12,16.12,0,0,1-2.1-3c-1.27-2-3-4.9-5.17-8.52-4.27-7.26-10-17.41-15.93-28.79s-11-21.85-14.56-29.5c-1.76-3.82-3.15-6.93-4.06-9.11a15.14,15.14,0,0,1-1.26-3.44,16.27,16.27,0,0,1,1.84,3.17l4.52,8.88c3.78,7.51,9,17.88,15,29.24s11.47,21.59,15.48,29l4.72,8.78A15.5,15.5,0,0,1,165.85,489.5Z" transform="translate(0)"/><path class="cls-2" d="M156.06,346.44a8.9,8.9,0,0,1,0,2.73,48,48,0,0,1-1.16,7.36A60.85,60.85,0,0,1,151.36,367a82.08,82.08,0,0,1-6.52,11.87,141.41,141.41,0,0,1-15.42,19c-4.23,4.56-6.43,7.71-6.62,7.59s1.71-3.55,5.76-8.35S138.3,385.9,143.48,378A91.89,91.89,0,0,0,150,366.38a71.58,71.58,0,0,0,3.84-10.14C155.52,350.29,155.76,346.41,156.06,346.44Z" transform="translate(0)"/><path class="cls-2" d="M201.91,440.48a20,20,0,0,1-2.29-3.44c-1.38-2.26-3.31-5.58-5.63-9.71-4.65-8.26-10.8-19.83-17.12-32.85s-11.59-25-15.2-33.79c-1.8-4.38-3.21-7.95-4.13-10.44a19.13,19.13,0,0,1-1.28-3.92,20.11,20.11,0,0,1,1.86,3.68l4.61,10.22c3.88,8.64,9.31,20.54,15.61,33.53s12.28,24.63,16.66,33l5.17,10A20,20,0,0,1,201.91,440.48Z" transform="translate(0)"/><path class="cls-2" d="M174.49,468.5c.37.31-2.73,4.17-5,9.74s-2.74,10.47-3.23,10.44c-.21,0-.37-1.27-.19-3.31a27.22,27.22,0,0,1,1.91-7.74,27.58,27.58,0,0,1,4-6.89C173.34,469.15,174.33,468.36,174.49,468.5Z" transform="translate(0)"/><path class="cls-2" d="M201.75,441.23c.19,0-.11,1.95-1.55,4.68a27.54,27.54,0,0,1-7.87,8.93,57.94,57.94,0,0,1-5.49,3.5c-1.71,1-3.2,1.91-4.4,2.76-2.4,1.68-3.55,3.13-3.76,3s.7-1.87,3-3.88a39,39,0,0,1,4.32-3.14c1.67-1.08,3.52-2.18,5.3-3.53a33.23,33.23,0,0,0,7.86-8.21C200.83,442.87,201.51,441.15,201.75,441.23Z" transform="translate(0)"/><path class="cls-2" d="M124.07,408.44c-.09.1-.76-.44-2.1-1.18a20.2,20.2,0,0,0-6.08-2.07,38.3,38.3,0,0,0-9.59-.3,93.62,93.62,0,0,1-12.06.48,39.78,39.78,0,0,1-11.83-2.88c-3.46-1.37-6.47-2.76-9-4-5-2.45-8-4.26-7.88-4.45s3.24,1.23,8.36,3.4c2.56,1.07,5.62,2.35,9,3.61a41.2,41.2,0,0,0,11.4,2.67,114,114,0,0,0,11.88-.36,35.74,35.74,0,0,1,9.91.67,17.3,17.3,0,0,1,6.17,2.67C123.6,407.66,124.14,408.37,124.07,408.44Z" transform="translate(0)"/><path class="cls-2" d="M109.61,483.3a14.31,14.31,0,0,1-1.85-3.33c-1.06-2.2-2.43-5.47-4-9.56-3-8.2-7.16-19.45-12.86-31.43a319.76,319.76,0,0,0-16.18-29.84c-2.28-3.7-4.18-6.67-5.48-8.72a17.28,17.28,0,0,1-1.91-3.29,16.39,16.39,0,0,1,2.43,2.93c1.47,1.95,3.52,4.83,5.93,8.47a244,244,0,0,1,16.68,29.75A262.26,262.26,0,0,1,104.9,470c1.38,4.13,2.57,7.43,3.44,9.7A20.19,20.19,0,0,1,109.61,483.3Z" transform="translate(0)"/><path class="cls-2" d="M180,498.56c.06.06-.49.73-1.86,1.45a11.91,11.91,0,0,1-6.35,1.13,16.39,16.39,0,0,1-4.41-1,25.7,25.7,0,0,1-4.59-2.27c-3.06-1.88-6-4.41-9.32-6.68a36.82,36.82,0,0,0-9.89-5.12,19.59,19.59,0,0,0-8.92-.75,15.47,15.47,0,0,0-5.72,2c-1.24.75-1.86,1.3-2,1.21s.41-.78,1.6-1.73a14.07,14.07,0,0,1,5.87-2.64,19.76,19.76,0,0,1,9.56.44,35.59,35.59,0,0,1,10.39,5.22c3.39,2.34,6.3,4.89,9.2,6.75a25.43,25.43,0,0,0,4.27,2.28,15.9,15.9,0,0,0,4,1.07,12.66,12.66,0,0,0,6-.56A17.13,17.13,0,0,1,180,498.56Z" transform="translate(0)"/><path class="cls-2" d="M169.76,351.87c.43,0,.57,3.22-1,6.77s-4.06,5.6-4.36,5.29,1.43-2.69,2.87-6S169.29,351.82,169.76,351.87Z" transform="translate(0)"/><path class="cls-2" d="M213.56,437a17.06,17.06,0,0,1-2.16-3.1c-1.3-2.05-3.12-5.05-5.31-8.78-4.4-7.48-10.25-17.93-16.36-29.66S178.42,372.9,174.81,365c-1.8-3.95-3.22-7.15-4.15-9.39a16,16,0,0,1-1.29-3.55,16.89,16.89,0,0,1,1.87,3.28c1.09,2.16,2.67,5.29,4.61,9.16,3.87,7.75,9.23,18.43,15.32,30.15S203,416.9,207.09,424.51l4.86,9A16.55,16.55,0,0,1,213.56,437Z" transform="translate(0)"/><path class="cls-2" d="M214,439c.1.07-.4.92-1.39,2.42a42.06,42.06,0,0,1-5,5.69,83.9,83.9,0,0,1-8.72,7.1c-3.41,2.48-7.26,5-11.12,7.92a67,67,0,0,0-10.12,8.93,55.06,55.06,0,0,0-6.52,8.86c-3.21,5.43-4.38,9.22-4.65,9.12a8.2,8.2,0,0,1,.63-2.71,43.17,43.17,0,0,1,3-7,49.67,49.67,0,0,1,6.41-9.3,63.57,63.57,0,0,1,10.26-9.24c3.92-2.92,7.8-5.44,11.23-7.84a101.26,101.26,0,0,0,8.81-6.72,63.43,63.43,0,0,0,5.31-5.23C213.28,439.69,214,439,214,439Z" transform="translate(0)"/><path class="cls-2" d="M215.7,457.92c.07.07-.41.74-1.47,1.79a28.67,28.67,0,0,1-5,3.84,55.78,55.78,0,0,1-8.31,4.16c-3.23,1.34-6.83,2.6-10.54,4a65.11,65.11,0,0,0-10,4.76,34.32,34.32,0,0,0-7.1,5.51c-3.58,3.72-4.55,6.93-4.84,6.79a5.46,5.46,0,0,1,.62-2.22,19.63,19.63,0,0,1,3.37-5.34,31.24,31.24,0,0,1,7.16-6,59.48,59.48,0,0,1,10.24-5c3.76-1.43,7.36-2.65,10.57-3.9a66.89,66.89,0,0,0,8.28-3.75C213.23,460.07,215.5,457.72,215.7,457.92Z" transform="translate(0)"/><path class="cls-2" d="M228.34,446.47a19.07,19.07,0,0,1-2.52-3.12c-.79-1-1.68-2.34-2.69-3.87L221.51,437l-1.72-2.81c-4.88-7.86-10.64-19.27-16.69-32-3.87-8.06-7.52-15.61-11-22-1.73-3.2-3.34-6.16-4.88-8.76-.74-1.31-1.48-2.53-2.19-3.66l-1-1.59-.27-.44-.13-.23-.07-.11s0-.12-.06-.06a7,7,0,0,1-.57,1,12.8,12.8,0,0,1-1,1.35,13,13,0,0,1-1.92,1.82,4.93,4.93,0,0,1-1.92,1.07c0-.09.6-.49,1.61-1.44a13.15,13.15,0,0,0,1.69-1.88,12.76,12.76,0,0,0,.87-1.33,22.91,22.91,0,0,0,1.13-2.39s.1.12.16.18l.16.25.35.52.72,1.08,1.11,1.66c.75,1.1,1.53,2.31,2.32,3.61,1.63,2.57,3.32,5.5,5.12,8.69,3.56,6.4,7.3,13.94,11.17,22,6.05,12.69,11.62,24.11,16.21,32.08l1.61,2.85,1.51,2.5c.94,1.57,1.74,2.93,2.45,4A18.48,18.48,0,0,1,228.34,446.47Z" transform="translate(0)"/><path class="cls-2" d="M103.86,497.82a23.19,23.19,0,0,1-1.62-4l-3.93-11.16C95,473.2,90.43,460.16,85,446a211.23,211.23,0,0,0-8.67-19.56,115.39,115.39,0,0,0-9.07-14.89L66.14,410c-.36-.49-.63-.87-1.18-1.55l-1.37-1.73L63,406l-.31-.39-.07-.09s.07,0,.09,0l.27,0c1.39.25,2.61.48,3.75.79.86.24,1.58.48,2.25.73,2.65,1,4,1.85,3.92,1.93s-1.46-.54-4.11-1.33c-.66-.19-1.43-.39-2.22-.57-.52-.11-1-.19-1.56-.25-.23-.08,0,.12.09.24l.34.38.67.75c.16.16.59.72,1,1.17l1.14,1.44a105.37,105.37,0,0,1,9.48,14.88,190.45,190.45,0,0,1,8.86,19.67c5.48,14.27,9.87,27.36,12.91,36.89,1.52,4.77,2.68,8.64,3.45,11.33A21.27,21.27,0,0,1,103.86,497.82Z" transform="translate(0)"/><path class="cls-2" d="M187.14,500.79s-.09.25-.38.62a9.74,9.74,0,0,1-1.43,1.48,16.79,16.79,0,0,1-6.8,3.37,27.53,27.53,0,0,1-11.24.32,70.5,70.5,0,0,1-13.07-4,73.11,73.11,0,0,0-12.75-4,28,28,0,0,0-10.72.07,18.14,18.14,0,0,0-6.62,2.86c-.69.52-1.23.92-1.57,1.24s-.56.43-.6.4.08-.25.36-.63a11.52,11.52,0,0,1,1.41-1.51,16.68,16.68,0,0,1,6.75-3.47,27.14,27.14,0,0,1,11.23-.44,67.75,67.75,0,0,1,13.09,3.94,75.28,75.28,0,0,0,12.75,4,28.16,28.16,0,0,0,10.72,0,18.48,18.48,0,0,0,6.67-2.75c.7-.51,1.25-.91,1.59-1.21S187.1,500.75,187.14,500.79Z" transform="translate(0)"/><path class="cls-2" d="M94.78,500.77a18.21,18.21,0,0,1-1.8-3.53c-.54-1.16-1.14-2.6-1.81-4.28-.34-.84-.7-1.74-1.09-2.69s-.73-2-1.13-3c-1.59-4.28-3.3-9.43-5.14-15.16S80,460,77.8,453.45a209.36,209.36,0,0,0-8.61-22.06c-1.53-3.17-3-6.1-4.47-8.65l-1-1.89-1.08-1.72-1.09-1.75-.69-1.11-.33-.53-.16-.25-.08-.13s0-.05,0-.07a17.46,17.46,0,0,0,2.89.19,10.81,10.81,0,0,0,1.68-.18,12,12,0,0,0,2.58-.79c1.35-.59,2-1.09,2.07-1s-.51.69-1.86,1.45A10.8,10.8,0,0,1,65,416a11.38,11.38,0,0,1-1.78.3,5.9,5.9,0,0,1-1.17,0H62l0,.06.08.1.14.21.29.41,1,1.45,1.15,1.7,1.11,1.87c1.57,2.54,3.11,5.46,4.71,8.64a183,183,0,0,1,8.87,22.16c2.22,6.59,4.13,12.93,5.89,18.68s3.35,10.92,4.8,15.23c.36,1.07.7,2.1,1,3.07l1,2.73c.59,1.7,1.1,3.17,1.55,4.36A18.54,18.54,0,0,1,94.78,500.77Z" transform="translate(0)"/><path class="cls-2" d="M183.5,502.82c.06.08-.68.79-2.22,1.81a31.93,31.93,0,0,1-7.06,3.35,45.34,45.34,0,0,1-11.39,2.19,80.33,80.33,0,0,1-14.14-.43c-5-.52-9.67-1.31-13.93-1.76a58.86,58.86,0,0,0-11.3-.3c-6.44.58-10,2.77-10.11,2.48,0-.05.17-.21.58-.48a12.74,12.74,0,0,1,1.86-1,26.32,26.32,0,0,1,7.54-2.12,52.24,52.24,0,0,1,11.58-.05c4.33.37,9,1.12,14,1.63a88.94,88.94,0,0,0,13.88.55,48.88,48.88,0,0,0,11.13-1.79C180.08,505.07,183.35,502.57,183.5,502.82Z" transform="translate(0)"/><path class="cls-2" d="M180.93,506.36c.07.2-3.56,1.76-9.6,3.82a224.56,224.56,0,0,1-24,6.6c-4.76,1-9.33,1.87-13.5,2.52-2.08.33-4.06.6-5.93.85a6,6,0,0,1-1.53,0,2.78,2.78,0,0,1-1.55-.65,4.59,4.59,0,0,1-.9-1.17l-.59-1.08c-3.06-5.58-4.86-9.08-4.67-9.2s2.35,3.19,5.67,8.62a8.27,8.27,0,0,0,1.3,1.87,2.61,2.61,0,0,0,2.09.23l5.87-1c4.13-.73,8.66-1.6,13.39-2.63,9.46-2,17.92-4.36,24-6.11S180.85,506.14,180.93,506.36Z" transform="translate(0)"/><path class="cls-2" d="M223.75,463.39c.13.17-2.72,2.57-7.59,6.1A238.5,238.5,0,0,1,175.54,493c-5.49,2.46-9,3.73-9.07,3.53s3.23-1.86,8.57-4.57,12.67-6.54,20.57-11.1,14.89-9,19.9-12.27S223.61,463.2,223.75,463.39Z" transform="translate(0)"/><path class="cls-2" d="M227.81,450.72c.06,0,0,.27-.17.72a13.35,13.35,0,0,1-.84,1.91,30.34,30.34,0,0,1-4.37,6.32,45.19,45.19,0,0,1-8.64,7.43,79.07,79.07,0,0,1-12.24,6.6c-4.5,2-8.84,3.69-12.73,5.34a88.35,88.35,0,0,0-10.07,4.81,17.92,17.92,0,0,0-5.54,4.84c-1,1.43-1.31,2.39-1.45,2.34a5.33,5.33,0,0,1,.91-2.68,16.55,16.55,0,0,1,5.46-5.47c5.49-3.59,13.83-6.76,22.75-10.67A86.67,86.67,0,0,0,213,465.85a49.83,49.83,0,0,0,8.63-7C226,454.32,227.55,450.58,227.81,450.72Z" transform="translate(0)"/><path class="cls-2" d="M224.42,462.89c-.08-.22.52-.62,1.39-1.27a18.24,18.24,0,0,0,1.47-1.2l.39-.37.3-.3.19-.23s.07-.06,0-.06a1.39,1.39,0,0,1-.26-.1l-.07,0-.28-.13c-.17-.09-.35-.17-.51-.27a8,8,0,0,1-1.6-1.18c-.81-.8-1.09-1.44-.94-1.58s.72.2,1.61.68c.45.24,1,.51,1.58.76l.47.19.24.09.47.15c.65.2,1.45.37,2.18.55a3.16,3.16,0,0,1-.37.5,17,17,0,0,1-1.42,1.62,6.38,6.38,0,0,1-.58.52c-.16.13-.32.26-.48.37a8.14,8.14,0,0,1-1.85,1C225.25,463.07,224.49,463.09,224.42,462.89Z" transform="translate(0)"/><path class="cls-2" d="M417.94,486.63a14.54,14.54,0,0,1-2.36-2.74c-1.43-1.83-3.44-4.52-5.88-7.87-4.88-6.7-11.45-16.1-18.41-26.67s-13-20.33-17.2-27.47c-2.11-3.57-3.78-6.48-4.89-8.52a15,15,0,0,1-1.59-3.25,16.42,16.42,0,0,1,2.13,2.92c1.28,1.94,3.1,4.76,5.33,8.24,4.47,7,10.64,16.62,17.58,27.18s13.36,20,18,26.91c2.32,3.43,4.19,6.22,5.46,8.16A15.45,15.45,0,0,1,417.94,486.63Z" transform="translate(0)"/><path class="cls-2" d="M397.82,351.94c.2.14-1.72,3.35-4.72,8.61s-7,12.57-11,20.87-7.23,16-9.47,21.61-3.57,9.12-3.8,9.05.74-3.71,2.72-9.45A209.82,209.82,0,0,1,392.12,360C395.38,354.83,397.64,351.83,397.82,351.94Z" transform="translate(0)"/><path class="cls-2" d="M460.31,432.11a17.17,17.17,0,0,1-2.49-3c-1.51-2-3.67-4.88-6.33-8.47-5.31-7.17-12.65-17.09-20.86-27.95s-15.75-20.62-21.2-27.68c-2.73-3.54-4.93-6.41-6.43-8.4a18.39,18.39,0,0,1-2.2-3.21,17.32,17.32,0,0,1,2.7,2.81c1.65,1.87,4,4.63,6.83,8.08,5.69,6.88,13.38,16.54,21.6,27.42s15.42,20.91,20.5,28.26c2.53,3.68,4.55,6.68,5.91,8.78A18.76,18.76,0,0,1,460.31,432.11Z" transform="translate(0)"/><path class="cls-2" d="M458.75,434.56c.17.16-2.12,3-5.83,7.52s-8.82,10.81-14.3,17.86-10.31,13.56-13.79,18.27-5.66,7.63-5.85,7.5,1.65-3.26,4.9-8.16,7.94-11.53,13.45-18.61,10.77-13.26,14.72-17.61S458.59,434.42,458.75,434.56Z" transform="translate(0)"/><path class="cls-2" d="M442.43,500.88c-.36.3-1.94-1.05-3.87-2.65s-3.54-2.92-3.32-3.32,2.3.34,4.36,2.06S442.77,500.61,442.43,500.88Z" transform="translate(0)"/><path class="cls-2" d="M499.74,470.64c.11.19-2.9,2.22-7.93,5.25s-12.1,7-20.06,11.13-15.3,7.56-20.68,9.91-8.79,3.64-8.88,3.44,3.14-1.87,8.39-4.48,12.49-6.22,20.43-10.31,15.06-7.93,20.23-10.69S499.63,470.44,499.74,470.64Z" transform="translate(0)"/><path class="cls-2" d="M483.21,444.06c.16.17-2.5,2.88-6.76,7.29s-10.07,10.55-16.23,17.57-11.48,13.6-15.28,18.4-6.15,7.79-6.34,7.65,1.83-3.35,5.42-8.35,8.79-11.71,15-18.77,12.16-13.11,16.64-17.32S483.07,443.9,483.21,444.06Z" transform="translate(0)"/><path class="cls-2" d="M412.4,359.13c.4.19.1,1.6-1,2.86s-2.53,1.7-2.75,1.32.57-1.33,1.54-2.41S412,358.92,412.4,359.13Z" transform="translate(0)"/><path class="cls-2" d="M468.38,433.79c-.37.27-13.13-16.38-28.51-37.18s-27.56-37.88-27.19-38.15,13.12,16.38,28.5,37.18S468.74,433.52,468.38,433.79Z" transform="translate(0)"/><path class="cls-2" d="M489.78,445c.15.17-2.55,2.85-6.91,7.19s-10.34,10.35-16.76,17.19-12,13.2-16.08,17.83-6.54,7.5-6.73,7.35,2-3.26,5.85-8.09,9.34-11.34,15.77-18.21,12.58-12.78,17.16-16.91S489.63,444.8,489.78,445Z" transform="translate(0)"/><path class="cls-2" d="M488.69,446.63c-.4.22-1.07-.21-1.82-.62s-1.46-.78-1.48-1.23c0-.22.24-.44.68-.51a2.49,2.49,0,0,1,1.6.32,2.52,2.52,0,0,1,1.11,1.21C488.93,446.2,488.88,446.52,488.69,446.63Z" transform="translate(0)"/><path class="cls-2" d="M489.2,454.72c.15.17-2.18,2.66-6.06,6.58s-9.28,9.29-15.27,15.19-11.43,11.23-15.41,15.05-6.5,6.12-6.67,6,2.08-2.74,5.85-6.77,9.09-9.49,15.08-15.4,11.54-11.15,15.62-14.86S489,454.56,489.2,454.72Z" transform="translate(0)"/><path class="cls-2" d="M487.8,454.53c-.26.37-1.21.15-2.12-.49s-1.44-1.46-1.18-1.83,1.2-.14,2.12.49S488.05,454.16,487.8,454.53Z" transform="translate(0)"/><path class="cls-2" d="M493.72,462.48c.26.36-9,7.53-20.69,16s-21.38,15-21.64,14.68,9-7.53,20.68-16S493.45,462.11,493.72,462.48Z" transform="translate(0)"/><path class="cls-2" d="M499,466.85c.21.39-7.54,5.08-17.32,10.48s-17.89,9.44-18.11,9.05,7.54-5.09,17.32-10.48S498.77,466.45,499,466.85Z" transform="translate(0)"/></g><g id="Layer_GRADUATION_HAT" data-name="Layer_GRADUATION HAT"><path class="cls-1" d="M239.54,79.58q-8.88,23.82-17.77,47.64l17.51-5.48,10,6.29a33.32,33.32,0,0,0,9.59-1c6.36-1.64,10.52-4.75,14.79-8,4.86-3.71,8.5-6.49,11.45-11.7a37.63,37.63,0,0,0,4.15-12.7,43.6,43.6,0,0,0,.58-8l-5.5-4.19c1.59-3.55,3.18-7.48,4.66-11.77,1.54-4.49,2.75-8.74,3.71-12.67Z" transform="translate(0)"/><path class="cls-2" d="M239.1,81.36c.21.09-.65,2.83-2.21,7.21s-3.81,10.36-6.4,17-5,12.52-6.84,16.79-3.07,6.86-3.28,6.78.65-2.83,2.2-7.2,3.82-10.37,6.4-17,5-12.52,6.85-16.79S238.89,81.28,239.1,81.36Z" transform="translate(0)"/><path class="cls-2" d="M292.66,58c.17.42-11.54,5.56-26.15,11.5s-26.6,10.4-26.77,10,11.54-5.57,26.15-11.5S292.49,57.58,292.66,58Z" transform="translate(0)"/><path class="cls-2" d="M274.76,104.89c-.21-.09.61-2.58,2.11-6.54S280.55,89,283.05,83s4.84-11.32,6.61-15.16,3-6.19,3.18-6.1-.62,2.59-2.12,6.55-3.67,9.39-6.17,15.34-4.84,11.32-6.61,15.16S275,105,274.76,104.89Z" transform="translate(0)"/><path class="cls-2" d="M273,110.66c.08.2-2.64,1.52-7.16,3.36s-10.84,4.21-17.92,6.5-13.59,4.08-18.33,5.23-7.72,1.67-7.78,1.46,2.82-1.15,7.47-2.57,11.08-3.39,18.14-5.67,13.41-4.46,18-6S272.9,110.44,273,110.66Z" transform="translate(0)"/><path class="cls-2" d="M280.8,16.13c.06-.05.66.5,1,1.87a11.26,11.26,0,0,1-.28,5.81c-.59,2.37-1.81,5-1.86,8a5.79,5.79,0,0,0,1.35,4,14.81,14.81,0,0,0,4.24,2.66,30.33,30.33,0,0,1,4.64,2.88,13.3,13.3,0,0,1,3.46,3.93,10.37,10.37,0,0,1,1.26,4.6A13.85,13.85,0,0,1,294.2,54a25.77,25.77,0,0,1-2.07,5.36c-.62,1.2-1,1.82-1.14,1.78s.12-.76.55-2a39.28,39.28,0,0,0,1.54-5.36,11,11,0,0,0-1-7.67c-1.47-2.56-4.36-4.47-7.54-6.1a15.39,15.39,0,0,1-4.68-3,7.24,7.24,0,0,1-1.66-5.15c.16-3.41,1.57-6,2.25-8.26a12.32,12.32,0,0,0,.77-5.36C281.06,16.85,280.68,16.19,280.8,16.13Z" transform="translate(0)"/><path class="cls-2" d="M278.92,14.51c.19-.12.7.35,1.52.22a1.05,1.05,0,0,0,.86-.69,1.28,1.28,0,0,0,.07-.64c0-.08-.05-.21-.17-.2a.31.31,0,0,0-.17,0,1.2,1.2,0,0,0-.37.1,1.51,1.51,0,0,0-.6.4,1.49,1.49,0,0,0-.32,1.2c.12.85.67,1.26.58,1.47s-.26.14-.6,0a2.17,2.17,0,0,1-1.07-1.11,2.52,2.52,0,0,1,.21-2.45,2.8,2.8,0,0,1,1.15-1,2.56,2.56,0,0,1,.77-.24,2.62,2.62,0,0,1,1,0,4.1,4.1,0,0,1,.5.14,1.79,1.79,0,0,1,.3.42,2.54,2.54,0,0,1,.33,1,2.63,2.63,0,0,1-.3,1.55,2.22,2.22,0,0,1-2.24,1.17,2,2,0,0,1-1.38-.77C278.82,14.79,278.84,14.57,278.92,14.51Z" transform="translate(0)"/><path class="cls-2" d="M273.92,2c.46.11.13,2.65,1.33,5.39s3.16,4.31,2.92,4.71c-.11.18-.81,0-1.74-.62A8.27,8.27,0,0,1,273.75,8a8.23,8.23,0,0,1-.6-4.34C273.33,2.56,273.72,2,273.92,2Z" transform="translate(0)"/><path class="cls-2" d="M276.87,2c.46.06.46,2.37,1.22,5s1.9,4.63,1.54,4.93c-.17.13-.72-.21-1.36-1a10,10,0,0,1-1.76-3.51,9.8,9.8,0,0,1-.3-3.9C276.36,2.52,276.65,1.94,276.87,2Z" transform="translate(0)"/><path class="cls-2" d="M282.05,2.62c.43.13.21,2.17-.15,4.63s-.77,4.48-1.22,4.47-.79-2.13-.4-4.71S281.62,2.49,282.05,2.62Z" transform="translate(0)"/><path class="cls-2" d="M250.78,128.58c-.23.39-3-.83-6.17-2.71s-5.56-3.74-5.33-4.12,3,.83,6.17,2.71S251,128.2,250.78,128.58Z" transform="translate(0)"/><path class="cls-2" d="M289.73,88.24a7,7,0,0,1,.2,2.48,41.88,41.88,0,0,1-.58,6.78,29.23,29.23,0,0,1-3.29,9.62,38.43,38.43,0,0,1-8.16,9.36,59.48,59.48,0,0,1-10,7.33,35.34,35.34,0,0,1-9.37,3.86,24.15,24.15,0,0,1-6.79.74,6.42,6.42,0,0,1-2.48-.38c0-.32,3.59.14,9-1.47s12.18-5.53,18.55-11.29a39.48,39.48,0,0,0,7.95-8.91,30.26,30.26,0,0,0,3.46-9.09c.61-2.73.87-5,1.08-6.58A7.81,7.81,0,0,1,289.73,88.24Z" transform="translate(0)"/><path class="cls-2" d="M290.23,88.48c-.32.31-1.9-.79-3.54-2.46s-2.69-3.28-2.37-3.59,1.91.78,3.54,2.45S290.55,88.16,290.23,88.48Z" transform="translate(0)"/></g></svg>